<mxfile host="app.diagrams.net" modified="2024-04-28T07:27:57.079Z" agent="Mozilla/5.0 (Windows NT 10.0; Win64; x64) AppleWebKit/537.36 (KHTML, like Gecko) Chrome/123.0.0.0 Safari/537.36 Edg/123.0.0.0" etag="oiz4s3g2K-wfQ_j5GPml" version="24.2.5" type="github">
  <diagram name="第 1 页" id="yXEXbdx3XeMFP_-r21DA">
    <mxGraphModel dx="1150" dy="617" grid="1" gridSize="10" guides="1" tooltips="1" connect="1" arrows="1" fold="1" page="1" pageScale="1" pageWidth="827" pageHeight="1169" math="0" shadow="0">
      <root>
        <mxCell id="0" />
        <mxCell id="1" parent="0" />
        <mxCell id="kxZhnr88pgUbYP92aShV-1" value="" style="endArrow=none;html=1;rounded=0;" edge="1" parent="1">
          <mxGeometry width="50" height="50" relative="1" as="geometry">
            <mxPoint x="280" y="360" as="sourcePoint" />
            <mxPoint x="560" y="360" as="targetPoint" />
          </mxGeometry>
        </mxCell>
        <mxCell id="kxZhnr88pgUbYP92aShV-2" value="名称" style="text;html=1;align=center;verticalAlign=middle;resizable=0;points=[];autosize=1;strokeColor=none;fillColor=none;" vertex="1" parent="1">
          <mxGeometry x="315" y="318" width="50" height="30" as="geometry" />
        </mxCell>
        <mxCell id="kxZhnr88pgUbYP92aShV-3" value="参数" style="text;html=1;align=center;verticalAlign=middle;resizable=0;points=[];autosize=1;strokeColor=none;fillColor=none;" vertex="1" parent="1">
          <mxGeometry x="485" y="318" width="50" height="30" as="geometry" />
        </mxCell>
        <mxCell id="kxZhnr88pgUbYP92aShV-4" value="操作系统" style="text;html=1;align=center;verticalAlign=middle;resizable=0;points=[];autosize=1;strokeColor=none;fillColor=none;" vertex="1" parent="1">
          <mxGeometry x="305" y="358" width="70" height="30" as="geometry" />
        </mxCell>
        <mxCell id="kxZhnr88pgUbYP92aShV-5" value="Ubuntu 22.04.3" style="text;html=1;align=center;verticalAlign=middle;resizable=0;points=[];autosize=1;strokeColor=none;fillColor=none;" vertex="1" parent="1">
          <mxGeometry x="455" y="358" width="110" height="30" as="geometry" />
        </mxCell>
        <mxCell id="kxZhnr88pgUbYP92aShV-8" value="CPU" style="text;html=1;align=center;verticalAlign=middle;resizable=0;points=[];autosize=1;strokeColor=none;fillColor=none;" vertex="1" parent="1">
          <mxGeometry x="315" y="388" width="50" height="30" as="geometry" />
        </mxCell>
        <mxCell id="kxZhnr88pgUbYP92aShV-9" value="Intel(R) Xeon(R) Platinum 8336C&amp;nbsp;" style="text;html=1;align=center;verticalAlign=middle;resizable=0;points=[];autosize=1;strokeColor=none;fillColor=none;" vertex="1" parent="1">
          <mxGeometry x="410" y="388" width="200" height="30" as="geometry" />
        </mxCell>
        <mxCell id="kxZhnr88pgUbYP92aShV-10" value="GPU" style="text;html=1;align=center;verticalAlign=middle;resizable=0;points=[];autosize=1;strokeColor=none;fillColor=none;" vertex="1" parent="1">
          <mxGeometry x="315" y="418" width="50" height="30" as="geometry" />
        </mxCell>
        <mxCell id="kxZhnr88pgUbYP92aShV-12" value="GA800" style="text;html=1;align=center;verticalAlign=middle;resizable=0;points=[];autosize=1;strokeColor=none;fillColor=none;" vertex="1" parent="1">
          <mxGeometry x="480" y="418" width="60" height="30" as="geometry" />
        </mxCell>
        <mxCell id="kxZhnr88pgUbYP92aShV-13" value="深度学习框架" style="text;html=1;align=center;verticalAlign=middle;resizable=0;points=[];autosize=1;strokeColor=none;fillColor=none;" vertex="1" parent="1">
          <mxGeometry x="290" y="448" width="100" height="30" as="geometry" />
        </mxCell>
        <mxCell id="kxZhnr88pgUbYP92aShV-14" value="pytorch" style="text;html=1;align=center;verticalAlign=middle;resizable=0;points=[];autosize=1;strokeColor=none;fillColor=none;" vertex="1" parent="1">
          <mxGeometry x="480" y="448" width="60" height="30" as="geometry" />
        </mxCell>
        <mxCell id="kxZhnr88pgUbYP92aShV-15" value="编程环境" style="text;html=1;align=center;verticalAlign=middle;resizable=0;points=[];autosize=1;strokeColor=none;fillColor=none;" vertex="1" parent="1">
          <mxGeometry x="305" y="478" width="70" height="30" as="geometry" />
        </mxCell>
        <mxCell id="kxZhnr88pgUbYP92aShV-16" value="Python3+Pycharm" style="text;html=1;align=center;verticalAlign=middle;resizable=0;points=[];autosize=1;strokeColor=none;fillColor=none;" vertex="1" parent="1">
          <mxGeometry x="450" y="478" width="120" height="30" as="geometry" />
        </mxCell>
        <mxCell id="kxZhnr88pgUbYP92aShV-17" value="内存容量" style="text;html=1;align=center;verticalAlign=middle;resizable=0;points=[];autosize=1;strokeColor=none;fillColor=none;" vertex="1" parent="1">
          <mxGeometry x="305" y="498" width="70" height="30" as="geometry" />
        </mxCell>
        <mxCell id="kxZhnr88pgUbYP92aShV-20" value="80G" style="text;html=1;align=center;verticalAlign=middle;resizable=0;points=[];autosize=1;strokeColor=none;fillColor=none;" vertex="1" parent="1">
          <mxGeometry x="485" y="498" width="50" height="30" as="geometry" />
        </mxCell>
      </root>
    </mxGraphModel>
  </diagram>
</mxfile>
